<?xml version="1.0" encoding="UTF-8" standalone="no"?>
<!-- Generator: Adobe Illustrator 24.2.1, SVG Export Plug-In . SVG Version: 6.00 Build 0)  -->

<svg
   xmlns:dc="http://purl.org/dc/elements/1.1/"
   xmlns:cc="http://creativecommons.org/ns#"
   xmlns:rdf="http://www.w3.org/1999/02/22-rdf-syntax-ns#"
   xmlns:svg="http://www.w3.org/2000/svg"
   xmlns="http://www.w3.org/2000/svg"
   xmlns:sodipodi="http://sodipodi.sourceforge.net/DTD/sodipodi-0.dtd"
   xmlns:inkscape="http://www.inkscape.org/namespaces/inkscape"
   version="1.1"
   id="_x31_00x-rgb-on-light"
   x="0px"
   y="0px"
   viewBox="0 0 151.08334 151.08334"
   xml:space="preserve"
   sodipodi:docname="100x-Logo.svg"
   width="151.08334"
   height="151.08334"
   inkscape:version="0.92.5 (2060ec1f9f, 2020-04-08)"><metadata
   id="metadata15"><rdf:RDF><cc:Work
       rdf:about=""><dc:format>image/svg+xml</dc:format><dc:type
         rdf:resource="http://purl.org/dc/dcmitype/StillImage" /><dc:title></dc:title></cc:Work></rdf:RDF></metadata><defs
   id="defs13" /><sodipodi:namedview
   pagecolor="#ffffff"
   bordercolor="#666666"
   borderopacity="1"
   objecttolerance="10"
   gridtolerance="10"
   guidetolerance="10"
   inkscape:pageopacity="0"
   inkscape:pageshadow="2"
   inkscape:window-width="1912"
   inkscape:window-height="2069"
   id="namedview11"
   showgrid="false"
   showguides="true"
   inkscape:guide-bbox="true"
   inkscape:snap-object-midpoints="false"
   inkscape:snap-others="true"
   inkscape:zoom="3.3429394"
   inkscape:cx="22.469046"
   inkscape:cy="9.6061055"
   inkscape:window-x="5760"
   inkscape:window-y="45"
   inkscape:window-maximized="0"
   inkscape:current-layer="_x31_00x-rgb-on-light"
   fit-margin-top="0"
   fit-margin-left="0"
   fit-margin-right="0"
   fit-margin-bottom="0" />
<style
   type="text/css"
   id="style2">
	.st0{fill:#ED2128;}
	.st1{fill:#132576;}
</style>

<rect
   style="opacity:1;fill:#ffffff;fill-opacity:1;stroke:none;stroke-width:0;stroke-linecap:round;stroke-linejoin:bevel;stroke-miterlimit:4;stroke-dasharray:none;stroke-dashoffset:15.42047405;stroke-opacity:1;paint-order:stroke fill markers"
   id="rect843"
   width="151.08334"
   height="151.8125"
   x="0"
   y="-0.72916555" /><g
   id="g835"
   transform="translate(6.0014582,50.966098)"><polygon
     transform="translate(0,45.8)"
     style="fill:#ed2128"
     points="91.2,47 95.4,47 108,0 103.8,0 "
     class="st0"
     id="slash_1_" /><g
     transform="translate(0,45.8)"
     id="_x31_00_x_1_">
	<path
   style="fill:#132576"
   inkscape:connector-curvature="0"
   d="m 130.2,25.1 7.9,-13 h -4.6 l -3.2,5.8 c -0.8,1.5 -1.6,2.9 -2.4,4.4 h -0.2 c -0.9,-1.4 -1.8,-2.9 -2.6,-4.4 l -3.5,-5.8 h -4.8 l 7.9,12.5 -8.6,13.7 h 4.6 l 3.6,-6.1 c 0.9,-1.6 1.8,-3.2 2.7,-4.7 h 0.2 c 1,1.5 1.9,3.1 2.9,4.7 l 3.9,6.1 h 4.8 z"
   class="st1"
   id="x_1_" />
	<path
   style="fill:#132576"
   inkscape:connector-curvature="0"
   d="m 71.3,3.2 c -6.9,0 -11,6.2 -11,17.7 0,11.5 4.2,18 11,18 6.8,0 11,-6.4 11,-18 0,-11.6 -4.1,-17.7 -11,-17.7 z m 0,32.2 c -4,0 -6.7,-4.3 -6.7,-14.4 0,-10.1 2.7,-14.2 6.7,-14.2 4,0 6.7,4.1 6.7,14.2 0,10.1 -2.7,14.4 -6.7,14.4 z"
   class="st1"
   id="_x30__3_" />
	<path
   style="fill:#132576"
   inkscape:connector-curvature="0"
   d="m 37.4,3.2 c -6.9,0 -11,6.2 -11,17.7 0,11.5 4.2,18 11,18 6.8,0 11,-6.4 11,-18 0,-11.6 -4.1,-17.7 -11,-17.7 z m 0,32.2 c -4,0 -6.7,-4.3 -6.7,-14.4 0,-10.1 2.7,-14.2 6.7,-14.2 4,0 6.7,4.1 6.7,14.2 0,10.1 -2.7,14.4 -6.7,14.4 z"
   class="st1"
   id="_x30__2_" />
	<path
   style="fill:#132576"
   inkscape:connector-curvature="0"
   d="M 10.8,3.9 H 7.3 C 5.1,5.2 2.6,6.1 0,6.4 V 9.3 H 6.3 V 34.7 H 0 v 3.7 h 16.2 v -3.7 h -5.5 z"
   class="st1"
   id="_x31__1_" />
</g></g>
<g
   id="g930"
   transform="matrix(3.1287332,0,0,3.1287332,-7.344247,-333.20919)"><path
     style="fill:#125afe;stroke-width:0.10688189"
     d="m 11.848148,131.6357 c -0.03006,-0.0783 1.23699,-5.30887 2.815666,-11.62341 l 2.87032,-11.48097 5.791681,-0.0276 c 5.756549,-0.0275 5.791681,-0.0263 5.791681,0.18915 0,0.4126 -2.044596,8.38498 -2.171028,8.46538 -0.06981,0.0444 -1.387622,0.0814 -2.928463,0.0823 l -2.80153,0.002 -0.107392,0.40081 c -0.05907,0.22044 -0.859941,3.43091 -1.779722,7.13436 -0.919781,3.70346 -1.720892,6.79368 -1.780247,6.86716 -0.162168,0.20077 -5.623783,0.19231 -5.700966,-0.009 z m 11.652203,0.005 c -0.02892,-0.0754 0.417488,-2.03531 0.992012,-4.35544 l 1.04459,-4.21842 2.847434,-0.0284 c 2.102716,-0.021 2.87433,-0.0629 2.95027,-0.16032 0.05656,-0.0725 0.886518,-3.28223 1.844351,-7.13265 0.957833,-3.85042 1.788434,-7.06088 1.845781,-7.13436 0.15682,-0.20094 5.620125,-0.19233 5.697375,0.009 0.06735,0.1755 -5.586233,22.82874 -5.745171,23.02025 -0.167202,0.20146 -11.399335,0.20186 -11.476642,4.2e-4 z"
     id="path934"
     inkscape:connector-curvature="0" /><path
     style="fill:#fe0504;stroke-width:0.10688189"
     d="m 11.848148,131.6357 c -0.03006,-0.0783 1.23699,-5.30887 2.815666,-11.62341 l 2.87032,-11.48097 5.791681,-0.0276 c 5.756549,-0.0275 5.791681,-0.0263 5.791681,0.18915 0,0.4126 -2.044596,8.38498 -2.171028,8.46538 -0.06981,0.0444 -1.387622,0.0814 -2.928463,0.0823 l -2.80153,0.002 -0.107392,0.40081 c -0.05907,0.22044 -0.859941,3.43091 -1.779722,7.13436 -0.919781,3.70346 -1.720892,6.79368 -1.780247,6.86716 -0.162168,0.20077 -5.623783,0.19231 -5.700966,-0.009 z"
     id="path932"
     inkscape:connector-curvature="0" /></g></svg>