<?xml version="1.0" encoding="UTF-8" standalone="no"?>
<!-- Created with Inkscape (http://www.inkscape.org/) -->

<svg
   xmlns:dc="http://purl.org/dc/elements/1.1/"
   xmlns:cc="http://creativecommons.org/ns#"
   xmlns:rdf="http://www.w3.org/1999/02/22-rdf-syntax-ns#"
   xmlns:svg="http://www.w3.org/2000/svg"
   xmlns="http://www.w3.org/2000/svg"
   xmlns:sodipodi="http://sodipodi.sourceforge.net/DTD/sodipodi-0.dtd"
   xmlns:inkscape="http://www.inkscape.org/namespaces/inkscape"
   width="100mm"
   height="100mm"
   viewBox="0 0 100 100"
   version="1.1"
   id="svg942"
   inkscape:version="0.92.5 (2060ec1f9f, 2020-04-08)"
   sodipodi:docname="sapio-logo.svg"
   enable-background="new">
  <defs
     id="defs936" />
  <sodipodi:namedview
     id="base"
     pagecolor="#ffffff"
     bordercolor="#666666"
     borderopacity="1.0"
     inkscape:pageopacity="0.0"
     inkscape:pageshadow="2"
     inkscape:zoom="2"
     inkscape:cx="144.31667"
     inkscape:cy="331.25359"
     inkscape:document-units="mm"
     inkscape:current-layer="layer2"
     showgrid="false"
     inkscape:snap-object-midpoints="true"
     inkscape:window-width="1912"
     inkscape:window-height="2069"
     inkscape:window-x="5760"
     inkscape:window-y="45"
     inkscape:window-maximized="0"
     showguides="true"
     inkscape:guide-bbox="true"
     inkscape:snap-bbox="true"
     inkscape:snap-bbox-midpoints="true">
    <sodipodi:guide
       position="50,50"
       orientation="0.70710678,0.70710678"
       id="guide4866"
       inkscape:locked="false"
       inkscape:label=""
       inkscape:color="rgb(0,0,255)" />
  </sodipodi:namedview>
  <metadata
     id="metadata939">
    <rdf:RDF>
      <cc:Work
         rdf:about="">
        <dc:format>image/svg+xml</dc:format>
        <dc:type
           rdf:resource="http://purl.org/dc/dcmitype/StillImage" />
        <dc:title />
      </cc:Work>
    </rdf:RDF>
  </metadata>
  <g
     inkscape:label="Layer 1"
     inkscape:groupmode="layer"
     id="layer1"
     transform="translate(0,-197)"
     style="display:inline">
    <g
       id="g4955">
      <path
         style="fill:none;stroke:#00ffff;stroke-width:1;stroke-linecap:butt;stroke-linejoin:miter;stroke-miterlimit:4;stroke-dasharray:none;stroke-opacity:1"
         d="m 79.231757,276.23175 c 0,0 -22.645798,-30.53409 -39.902687,-13.27719 -13.949603,13.94961 -20.279555,21.7258 -20.279555,21.7258"
         id="path4841"
         inkscape:connector-curvature="0"
         sodipodi:nodetypes="csc" />
      <path
         transform="matrix(0.63067414,-0.77604776,0.90219759,0.43132298,0,0)"
         style="opacity:1;fill:none;fill-opacity:1;stroke:#ff6600;stroke-width:7.55688477;stroke-linecap:round;stroke-linejoin:bevel;stroke-miterlimit:4;stroke-dasharray:none;stroke-dashoffset:15.42047405;stroke-opacity:1;paint-order:stroke fill markers"
         d="m -156.68369,200.1485 a 50.354275,14.433953 0 0 1 -50.35427,14.43395 50.354275,14.433953 0 0 1 -50.35428,-14.43395 50.354275,14.433953 0 0 1 50.35428,-14.43395 50.354275,14.433953 0 0 1 50.35427,14.43395 z"
         id="path1498"
         inkscape:connector-curvature="0" />
      <path
         sodipodi:nodetypes="csc"
         inkscape:connector-curvature="0"
         id="path4835"
         d="m 23.319916,220.31992 c 0,0 21.754687,27.22551 39.011577,9.96861 11.112672,-11.11268 16.337355,-18.25667 16.87859,-18.97485"
         style="fill:none;stroke:#00ff00;stroke-width:1;stroke-linecap:round;stroke-linejoin:miter;stroke-miterlimit:4;stroke-dasharray:none;stroke-opacity:1" />
      <path
         transform="rotate(0.77726385)"
         style="opacity:1;fill:#00ff00;fill-opacity:1;stroke:#00ff00;stroke-width:3.61500001;stroke-linecap:butt;stroke-linejoin:bevel;stroke-miterlimit:4;stroke-dasharray:none;stroke-dashoffset:15.42047405;stroke-opacity:1;paint-order:stroke fill markers"
         d="m 31.357892,219.98331 a 5.051394,5.051394 0 0 1 -5.051394,5.05139 5.051394,5.051394 0 0 1 -5.051394,-5.05139 5.051394,5.051394 0 0 1 5.051394,-5.0514 5.051394,5.051394 0 0 1 5.051394,5.0514 z"
         id="path4831"
         inkscape:connector-curvature="0" />
      <path
         transform="rotate(-179.22274)"
         style="opacity:1;fill:#00ffff;fill-opacity:1;stroke:#00ffff;stroke-width:3.61500001;stroke-linecap:butt;stroke-linejoin:bevel;stroke-miterlimit:4;stroke-dasharray:none;stroke-dashoffset:15.42047405;stroke-opacity:1;paint-order:stroke fill markers"
         d="m -77.920248,-275.13153 a 5.051394,5.051394 0 0 1 -5.051394,5.05139 5.051394,5.051394 0 0 1 -5.051394,-5.05139 5.051394,5.051394 0 0 1 5.051394,-5.05139 5.051394,5.051394 0 0 1 5.051394,5.05139 z"
         id="circle4839"
         inkscape:connector-curvature="0" />
    </g>
  </g>
  <g
     inkscape:groupmode="layer"
     id="layer2"
     inkscape:label="Layer 2"
     style="display:inline">
    <path
       style="fill:none;fill-rule:evenodd;stroke:#000000;stroke-width:0.40000001;stroke-miterlimit:4;stroke-dasharray:none"
       d="m 47.420314,47.420314 c -0.132048,-0.15394 0.142362,-0.25395 0.25586,-0.21947 0.307573,0.0934 0.327191,0.49805 0.183083,0.73119 -0.257777,0.41704 -0.844739,0.42327 -1.206524,0.14669 -0.530933,-0.40588 -0.522607,-1.19628 -0.110305,-1.68185 0.549534,-0.64719 1.549565,-0.62336 2.157186,-0.0739 0.76463,0.69142 0.724853,1.90369 0.03753,2.63252 -0.832443,0.88272 -2.258274,0.82677 -3.107849,10e-4 -1.001195,-0.97298 -0.92896,-2.61316 0.03525,-3.58318 1.113218,-1.11993 2.96824,-1.03133 4.058512,0.0716 1.238836,1.25326 1.133819,3.32346 -0.108028,4.53384 -1.393164,1.35787 -3.678778,1.2364 -5.009175,-0.14442 -1.476992,-1.53297 -1.339054,-4.03417 0.180805,-5.4845 1.672704,-1.59619 4.389627,-1.44176 5.959838,0.21719 1.715434,1.81238 1.544503,4.74513 -0.253582,6.43517 -1.952014,1.83473 -5.100661,1.64728 -6.910501,-0.28997 -1.954048,-2.09161 -1.750083,-5.45623 0.32636,-7.38583 2.231181,-2.0734 5.811818,-1.85291 7.861164,0.36275 2.192776,2.37072 1.955752,6.16743 -0.399138,8.33649 -2.510255,2.31217 -6.523058,2.05861 -8.811827,-0.43552 -2.431582,-2.64977 -2.161483,-6.87871 0.471916,-9.28716 2.789263,-2.55101 7.234357,-2.26437 9.762489,0.5083 2.670446,2.92875 2.367259,7.59003 -0.544692,10.23782 -3.068224,2.7899 -7.945702,2.47016 -10.713153,-0.58108 -2.90935,-3.20769 -2.573067,-8.30139 0.61747,-11.18848 3.347149,-3.02882 8.65708,-2.67598 11.663816,0.65386 3.148286,3.4866 2.778901,9.01278 -0.690248,12.13914 -3.626047,3.26777 -9.368484,2.88183 -12.614479,-0.72663 -3.387247,-3.76549 -2.984754,-9.7242 0.763026,-13.08981 3.904924,-3.50674 10.079909,-3.08769 13.565141,0.79941 3.62623,4.04436 3.190625,10.43563 -0.835802,14.04047 -4.183785,3.74573 -10.791352,3.29357 -14.515805,-0.87219 -3.865226,-4.32321 -3.396508,-11.14708 0.90858,-14.99113 4.462631,-3.98473 11.502808,-3.49946 15.466468,0.94497 4.104237,4.60204 3.602401,11.85853 -0.981358,15.94179 -4.741465,4.22375 -12.214274,3.70536 -16.417131,-1.01774 -4.343257,-4.88088 -3.808304,-12.57001 1.054136,-16.89246 5.020291,-4.46278 12.925751,-3.91126 17.367793,1.09052 4.582289,5.1597 4.014215,13.28149 -1.126912,17.84312 -5.299109,4.70181 -13.637237,4.11718 -18.318457,-1.1633 -4.821326,-5.43851 -4.220131,-13.99298 1.19969,-18.79379 5.57792,-4.94084 14.348729,-4.32309 19.26912,1.23608 5.060371,5.71733 4.426052,14.70448 -1.272468,19.74446 -5.856724,5.17989 -15.060226,4.52901 -20.219783,-1.30886 -5.299421,-5.99613 -4.631978,-15.41598 1.345246,-20.69512 6.135524,-5.41894 15.77173,-4.73494 21.170446,1.38164 5.538476,6.27492 4.837909,16.12748 -1.418024,21.64578 -6.414319,5.658 -16.483237,4.94087 -22.121108,-1.45442 -5.777537,-6.55371 -5.043844,-16.83899 1.4908,-22.59644 6.693112,-5.89706 17.19475,-5.14681 23.071772,1.52719 6.0166,6.83251 5.249781,17.55051 -1.563578,23.54711 -6.971901,6.13613 -17.906264,5.35275 -24.022435,-1.59997 -6.255666,-7.11129 -5.455721,-18.26202 1.636356,-24.49777 7.250686,-6.3752 18.617783,-5.55869 24.973098,1.67275 6.494736,7.39008 5.661663,18.97354 -1.709134,25.44843 -7.529469,6.61427 -19.329303,5.76463 -25.92376,-1.74553 -6.733809,-7.66885 -5.867608,-19.68506 1.781911,-26.39909 7.808249,-6.85334 20.040827,-5.97058 26.874423,1.8183 6.972884,7.94764 6.073555,20.39659 -1.854688,27.34976 -8.087029,7.09242 -20.752353,6.17653 -27.825087,-1.89108 -7.21196,-8.22642 -6.279503,-21.10812 1.927466,-28.30042 8.365805,-7.3315 21.463881,-6.38248 28.77575,1.96386 7.451039,8.50519 6.485453,21.81964 -2.000244,29.25108 -8.64458,7.57058 -22.17541,6.58843 -29.726412,-2.03663 -7.69012,-8.78397 -6.691405,-22.53118 2.073021,-30.20175 8.923354,-7.80966 22.886941,-6.79438 30.677075,2.10941 7.929202,9.06274 6.897358,23.24271 -2.145798,31.15241 -9.202126,8.04874 -23.598475,7.00033 -31.627739,-2.18219 -8.168285,-9.34151 -7.103311,-23.95424 2.218576,-32.10307 9.480897,-8.28783 24.310009,-7.20629 32.578402,2.25497 8.40737,9.62028 7.309266,24.66577 -2.291354,33.05373 -9.759667,8.52691 -25.021544,7.41224 -33.529064,-2.32774 -8.646457,-9.89905 -7.515223,-25.37732 2.364131,-34.0044 10.038435,-8.766 25.733081,-7.6182 34.479727,2.40052 8.885544,10.17782 7.72118,26.08885 -2.436908,34.95506 -10.317204,9.00509 -26.444619,7.82416 -35.430391,-2.4733 -9.124632,-10.45658 -7.927138,-26.80039 2.509686,-35.90572 10.59597,-9.24418 27.156157,-8.03012 36.381054,2.54608 9.363721,10.73535 8.133096,27.51192 -2.582464,36.85638 -10.874736,9.48327 -27.867697,8.23608 -37.331716,-2.61885 -9.602812,-11.01412 -8.339056,-28.22347 2.655241,-37.80705 11.153501,-9.72236 28.579237,-8.44204 38.282379,2.69163 9.841902,11.29288 8.545016,28.93501 -2.728018,38.75771 -11.432266,9.96145 -29.290779,8.648 -39.233043,-2.76441 -10.080994,-11.57164 -8.750976,-29.64655 2.800796,-39.70837 11.71103,-10.20054 30.002321,-8.85396 40.183706,2.83718 10.320086,11.85042 8.956938,30.3581 -2.873574,40.65904 -11.989793,10.43963 -30.713863,9.05992 -41.134368,-2.90996 -10.559179,-12.12918 -9.1629,-31.06964 2.946351,-41.6097 12.268555,-10.67873 31.425406,-9.26588 42.085031,2.98274 10.798273,12.40793 9.368862,31.78118 -3.019129,42.56036 -12.547317,10.91782 -32.136949,9.47184 -43.035694,-3.05552 -11.037366,-12.68669 -9.574825,-32.49272 3.091906,-43.51102 12.826079,-11.15692 32.848495,-9.67781 43.986358,3.12829 11.276461,12.96546 9.780788,33.20427 -3.164684,44.46169 -13.10484,11.39601 -33.560039,9.88377 -44.93702,-3.20107 -11.515557,-13.24422 -9.986752,-33.91581 3.237461,-45.41235 13.383601,-11.63511 34.271584,-10.08974 45.887683,3.27385 11.754652,13.52298 10.192716,34.62736 -3.310239,46.36301 -13.662361,11.8742 -34.98313,10.2957 -46.838346,-3.34663 -11.993748,-13.80174 -10.39868,-35.3389 3.383017,-47.31367 13.94112,-12.1132995 35.694676,-10.50167 47.789009,3.4194 12.232844,14.0805 10.604645,36.05045 -3.455794,48.26434 -14.219881,12.3524 -36.406223,10.70763 -48.739672,-3.49218 -12.4719415,-14.35926 -10.81061,-36.762 3.528571,-49.215 14.49864,-12.5914895 37.11777,-10.9135995 49.690335,3.56496 12.711039,14.63802 11.016575,37.47354 -3.601349,50.16566 C 55.906882,87.371914 32.854963,85.660884 20.043282,70.903594 7.0931468,55.986814 8.8207415,32.718494 23.717409,19.787264 38.773566,6.7175745 62.258274,8.4617345 75.30907,23.497774 88.498303,38.693314 86.737577,62.394414 71.562166,75.564764 56.227249,88.873714 32.30975,87.096414 19.01984,71.781634 5.5915083,56.307344 7.3853672,32.173444 22.839521,18.763984 38.453194,5.2160945 62.803483,7.0265245 76.332508,22.620054 c 13.667431,15.75305 11.84044,40.31973 -3.892459,53.96831 -15.892431,13.78698 -40.67551,11.94343 -54.44365,-3.92884 C 4.0898707,56.627714 5.9499936,31.628234 21.961636,17.740544 38.132824,3.7144645 63.348695,5.5911545 77.355949,21.742164 91.501577,38.052734 89.608322,63.484994 73.317935,77.611804 56.867989,91.876984 31.219326,89.967164 16.972959,73.537404 2.588232,56.948084 4.5146191,31.083024 21.08375,16.717094 37.812453,2.2128245 63.893908,4.1557745 78.379389,20.864284 93.003216,37.732364 91.043697,64.030214 74.19582,78.635254 57.188361,93.378624 30.674113,91.402544 15.949518,74.415294 1.0865924,57.268454 3.0792439,30.537814 20.205865,15.693654 37.492081,0.7111845 64.439122,2.7204045 79.40283,19.986394 c 15.102026,17.42559 13.076242,44.58903 -4.329125,59.6723 -17.564972,15.22157 -44.944807,13.17922 -60.147627,-4.36552 -15.3411261,-17.70435 -13.2822101,-45.30058 4.401901,-60.62296 17.843729,-15.4606695 45.656358,-13.3851895 61.098291,4.43829 15.580227,17.98311 13.488178,46.01214 -4.474679,61.57363 -18.122485,15.69977 -46.367908,13.59116 -62.048954,-4.51107 -15.8193264,-18.26186 -13.6941457,-46.72368 4.547457,-62.52429 18.401241,-15.9388695 47.079459,-13.7971295 62.999617,4.58385 16.058429,18.54062 13.900114,47.43523 -4.620235,63.47495 -18.679996,16.17798 -47.791009,14.0031 -63.950279,-4.65663 -16.2975283,-18.81937 -14.1060829,-48.14678 4.693012,-64.42561 18.958752,-16.4170795 48.50256,-14.2090595 64.900942,4.7294 16.536629,19.09813 14.312052,48.85834 -4.765789,65.37628 -19.237508,16.65618 -49.214112,14.41503 -65.851606,-4.80218 -16.77573,-19.37689 -14.5180197,-49.56989 4.838567,-66.32694 19.516263,-16.8952795 49.925663,-14.6209995 66.802269,4.87496 17.014828,19.65564 14.723988,50.28144 -4.911345,67.2776 C 58.790229,100.88683 27.948033,98.579424 10.832316,78.804714 -6.4216172,58.870324 -4.0976419,27.811724 15.816438,10.576454 35.890211,-6.7970255 67.165204,-4.4564855 84.520032,15.596964 102.01307,35.810114 99.65596,67.301504 79.463133,84.775894 59.110605,102.38847 27.402815,100.0148 9.8088755,79.682604 -7.9232609,59.190694 -5.5330206,27.266514 14.938552,9.5530145 c 20.631283,-17.85169 52.77187,-15.44488 70.604921,5.1660695 17.971237,20.77066 15.547867,53.12764 -5.202455,71.08025 C 59.430981,103.89012 26.857597,101.45018 8.7854355,80.560494 -9.4249051,59.511074 -6.9683998,26.721294 14.060667,8.5295745 c 21.188792,-18.32989 54.194974,-15.85682 72.506246,5.3116195 18.449447,21.32817 15.959807,54.55075 -5.348009,72.98158 C 59.751357,105.39176 26.312378,102.88556 7.7619945,81.438374 -10.92655,59.831454 -8.4037793,26.176074 13.182781,7.5061345 34.929082,-11.301966 68.80086,-8.7626255 87.590354,12.963314 106.518,34.848984 103.9621,68.937164 82.096789,87.846214 60.071734,106.89341 25.767158,104.32094 6.7385542,82.316264 -12.428195,60.151824 -9.8391592,25.630854 12.304896,6.4826945 34.608705,-12.803606 69.346079,-10.198006 88.613794,12.085424 108.01965,34.528614 105.39748,69.482384 82.974674,88.869654 60.392111,108.39505 25.221938,105.75632 5.7151137,83.194144 -13.929841,60.472204 -11.274539,25.085634 11.42701,5.4592545 34.288328,-14.305256 69.891299,-11.633386 89.637235,11.207544 109.52129,34.208234 106.83286,70.027604 83.85256,89.893094 60.712488,109.8967 24.676718,107.1917 4.6916732,84.072034 -15.431487,60.792584 -12.70992,24.540414 10.549125,4.4358145 33.96795,-15.806896 70.43652,-13.068766 90.660675,10.329654 c 20.362265,23.5582 17.607565,60.24317 -5.93023,80.58688 C 61.032866,111.39835 24.131498,108.62708 3.6682327,84.949914 -16.933133,61.112964 -14.145301,23.995194 9.6712405,3.4123745 33.647573,-17.308546 70.98174,-14.504146 91.684116,9.4517645 112.52458,33.567474 109.70362,71.118044 85.608331,91.939974 61.353244,112.89999 23.586277,110.06246 2.6447922,85.827804 -18.43478,61.433334 -15.580682,23.449974 8.7933545,2.3889345 33.327194,-18.810196 71.526961,-15.939526 92.707556,8.5738845 114.02623,33.247104 111.139,71.663264 86.486216,92.963414 61.673622,114.40164 23.041056,111.49784 1.6213517,86.705684 -19.936427,61.753714 -17.016064,22.904754 7.9154695,1.3654945 33.006816,-20.311836 72.072183,-17.374906 93.730997,7.6959945 115.52788,32.926724 112.57438,72.208484 87.364102,93.986854 61.994001,115.90329 22.495834,112.93322 0.5979112,87.583574 -21.438074,62.074094 -18.451445,22.359534 7.0375837,0.3420545 32.686437,-21.813486 72.617404,-18.810286 94.754437,6.8181145 117.02952,32.606344 114.00976,72.753714 88.241987,95.010294 62.31438,117.40493 21.950613,114.36861 -0.4255293,88.461454 -22.939721,62.394474 -19.886827,21.814304 6.1596982,-0.6813855 32.366058,-23.315136 73.162626,-20.245676 95.777878,5.9402245 118.53117,32.285964 115.44515,73.298934 89.119873,96.033734 62.634759,118.90658 21.405391,115.80399 -1.4489698,89.339344 -24.441369,62.714854 -21.322209,21.269084 5.2818128,-1.7048255 32.045679,-24.816776 73.707848,-21.681056 96.801318,5.0623445 120.03282,31.965584 116.88053,73.844154 89.997758,97.057174 62.955138,120.40823 20.860168,117.23937 -2.4724103,90.217234 -25.943017,63.035234 -22.757591,20.723864 4.4039273,-2.7282655 31.7253,-26.318426 74.25307,-23.116436 97.82476,4.1844545 121.53447,31.645204 118.31591,74.389374 90.875644,98.080624 63.275518,121.90988 20.314946,118.67475 -3.4958508,91.095114 -27.444665,63.355614 -24.192974,20.178644 3.5260419,-3.7517155"
       id="path4868"
       inkscape:connector-curvature="0" />
  </g>
</svg>
