<?xml version="1.0" encoding="UTF-8" standalone="no"?>
<svg
   xmlns:dc="http://purl.org/dc/elements/1.1/"
   xmlns:cc="http://creativecommons.org/ns#"
   xmlns:rdf="http://www.w3.org/1999/02/22-rdf-syntax-ns#"
   xmlns:svg="http://www.w3.org/2000/svg"
   xmlns="http://www.w3.org/2000/svg"
   xmlns:sodipodi="http://sodipodi.sourceforge.net/DTD/sodipodi-0.dtd"
   xmlns:inkscape="http://www.inkscape.org/namespaces/inkscape"
   width="200"
   height="200"
   viewBox="0 0 200 200"
   version="1.1"
   id="svg23"
   sodipodi:docname="acinq-logo.svg"
   inkscape:version="0.92.5 (2060ec1f9f, 2020-04-08)">
  <metadata
     id="metadata29">
    <rdf:RDF>
      <cc:Work
         rdf:about="">
        <dc:format>image/svg+xml</dc:format>
        <dc:type
           rdf:resource="http://purl.org/dc/dcmitype/StillImage" />
        <dc:title></dc:title>
      </cc:Work>
    </rdf:RDF>
  </metadata>
  <defs
     id="defs27" />
  <sodipodi:namedview
     pagecolor="#ffffff"
     bordercolor="#666666"
     borderopacity="1"
     objecttolerance="10"
     gridtolerance="10"
     guidetolerance="10"
     inkscape:pageopacity="0"
     inkscape:pageshadow="2"
     inkscape:window-width="1912"
     inkscape:window-height="2069"
     id="namedview25"
     showgrid="false"
     inkscape:zoom="2.2056075"
     inkscape:cx="-47.565677"
     inkscape:cy="53.500001"
     inkscape:window-x="3840"
     inkscape:window-y="45"
     inkscape:window-maximized="0"
     inkscape:current-layer="svg23" />
  <radialGradient
     id="a"
     cx="47.833"
     cy="51.834"
     r="56.832001"
     gradientUnits="userSpaceOnUse"
     gradientTransform="translate(-142.36441,-43.978814)">
    <stop
       offset="0"
       stop-color="#fff"
       id="stop2" />
    <stop
       offset="1"
       stop-color="#fff"
       stop-opacity="0"
       id="stop4" />
  </radialGradient>
  <g
     id="g21"
     transform="matrix(1.870337,0,0,1.870337,3.5723684,0.30723141)">
    <g
       id="g19"
       style="fill:none;stroke-width:6;stroke-linejoin:round">
      <path
         d="M 4.493,79.67 C -2.285,68.096 26.375,44.535 46.139,40.034 62.737,36.254 101.315,44.1 99.891,57.467"
         id="path9"
         inkscape:connector-curvature="0"
         style="stroke:#47bf94" />
      <path
         d="m 10.125,18.133 c 8.624,-9.988 41.797,13.701 51.001,30.018 9.723,17.237 12.87,55.271 -1.103,55.351"
         id="path11"
         inkscape:connector-curvature="0"
         style="stroke:#359f7e" />
      <path
         d="M 69.826,4.107 C 81.851,10.071 73.664,42.739 58.642,61.387 47.846,74.79 11.659,91.904 4.493,79.67"
         id="path13"
         inkscape:connector-curvature="0"
         style="stroke:#49daaa" />
      <path
         d="M 99.891,57.467 C 98.471,70.799 62.529,72.9 43.83,64.781 25.91,56.998 1.36,28.281 10.124,18.133"
         id="path15"
         inkscape:connector-curvature="0"
         style="stroke:#49daaa" />
      <path
         d="M 60.023,103.502 C 45.732,103.582 35.414,73.781 36.105,51.586 36.863,27.209 56.783,-2.362 69.826,4.107"
         id="path17"
         inkscape:connector-curvature="0"
         style="stroke:#aaf0d3" />
    </g>
  </g>
</svg>
